<svg width="20" height="20" viewBox="0 0 20 20" fill="none" xmlns="http://www.w3.org/2000/svg">
<path d="M15.9498 10.78C15.9798 10.53 15.9998 10.27 15.9998 10C15.9998 9.73 15.9798 9.47 15.9398 9.22L17.6298 7.9C17.7798 7.78 17.8198 7.56 17.7298 7.39L16.1298 4.62C16.0298 4.44 15.8198 4.38 15.6398 4.44L13.6498 5.24C13.2298 4.92 12.7898 4.66 12.2998 4.46L11.9998 2.34C11.9698 2.14 11.7998 2 11.5998 2H8.39976C8.19976 2 8.03976 2.14 8.00976 2.34L7.70976 4.46C7.21976 4.66 6.76976 4.93 6.35976 5.24L4.36976 4.44C4.18976 4.37 3.97976 4.44 3.87976 4.62L2.27976 7.39C2.17976 7.57 2.21976 7.78 2.37976 7.9L4.06976 9.22C4.02976 9.47 3.99976 9.74 3.99976 10C3.99976 10.26 4.01976 10.53 4.05976 10.78L2.36976 12.1C2.21976 12.22 2.17976 12.44 2.26976 12.61L3.86976 15.38C3.96976 15.56 4.17976 15.62 4.35976 15.56L6.34976 14.76C6.76976 15.08 7.20976 15.34 7.69976 15.54L7.99976 17.66C8.03976 17.86 8.19976 18 8.39976 18H11.5998C11.7998 18 11.9698 17.86 11.9898 17.66L12.2898 15.54C12.7798 15.34 13.2298 15.07 13.6398 14.76L15.6298 15.56C15.8098 15.63 16.0198 15.56 16.1198 15.38L17.7198 12.61C17.8198 12.43 17.7798 12.22 17.6198 12.1L15.9498 10.78V10.78ZM9.99976 13C8.34976 13 6.99976 11.65 6.99976 10C6.99976 8.35 8.34976 7 9.99976 7C11.6498 7 12.9998 8.35 12.9998 10C12.9998 11.65 11.6498 13 9.99976 13Z" fill="black"/>
</svg>
