<svg width="24" height="24" viewBox="0 0 24 24" fill="none" xmlns="http://www.w3.org/2000/svg">
<path d="M16.5601 8.94L7.62006 0L6.21006 1.41L8.59006 3.79L3.44006 8.94C2.85006 9.53 2.85006 10.48 3.44006 11.06L8.94006 16.56C9.23006 16.85 9.62006 17 10.0001 17C10.3801 17 10.7701 16.85 11.0601 16.56L16.5601 11.06C17.1501 10.48 17.1501 9.53 16.5601 8.94V8.94ZM5.21006 10L10.0001 5.21L14.7901 10H5.21006ZM19.0001 11.5C19.0001 11.5 17.0001 13.67 17.0001 15C17.0001 16.1 17.9001 17 19.0001 17C20.1001 17 21.0001 16.1 21.0001 15C21.0001 13.67 19.0001 11.5 19.0001 11.5Z" fill="black"/>
<path d="M0 20H24V24H0V20Z" fill="black" fill-opacity="0.36"/>
</svg>
