<svg width="218" height="218" viewBox="0 0 218 218" fill="none" xmlns="http://www.w3.org/2000/svg">
<path fill-rule="evenodd" clip-rule="evenodd" d="M216.385 72.6667C212.752 87.9065 203.265 100.926 190.347 109C203.164 117.074 212.752 130.094 216.284 145.333C217.395 149.673 217.899 154.215 217.899 158.958C217.899 191.557 191.456 218 158.857 218H145.333H81.2549L190.255 109H135.755V54.5L26.7549 163.5H81.2549V218H72.667H0L0 145.333L0 72.6667L0 0L72.667 0L145.333 0L158.958 0C191.558 0 218 26.4426 218 59.0417C218 63.6843 217.395 68.3269 216.385 72.6667Z" fill="white"/>
<path fill-rule="evenodd" clip-rule="evenodd" d="M216.385 72.6667C212.752 87.9065 203.265 100.926 190.347 109C203.164 117.074 212.752 130.094 216.284 145.333C217.395 149.673 217.899 154.215 217.899 158.958C217.899 191.557 191.456 218 158.857 218H145.333H81.2549L190.255 109H135.755V54.5L26.7549 163.5H81.2549V218H72.667H0L0 145.333L0 72.6667L0 0L72.667 0L145.333 0L158.958 0C191.558 0 218 26.4426 218 59.0417C218 63.6843 217.395 68.3269 216.385 72.6667Z" fill="url(#paint0_linear)"/>
<path fill-rule="evenodd" clip-rule="evenodd" d="M216.385 72.6667C212.752 87.9065 203.265 100.926 190.347 109C203.164 117.074 212.752 130.094 216.284 145.333C217.395 149.673 217.899 154.215 217.899 158.958C217.899 191.557 191.456 218 158.857 218H145.333H81.2549L190.255 109H135.755V54.5L26.7549 163.5H81.2549V218H72.667H0L0 145.333L0 72.6667L0 0L72.667 0L145.333 0L158.958 0C191.558 0 218 26.4426 218 59.0417C218 63.6843 217.395 68.3269 216.385 72.6667Z" fill="url(#paint1_linear)" style="mix-blend-mode:soft-light"/>
<path fill-rule="evenodd" clip-rule="evenodd" d="M216.385 72.6667C212.752 87.9065 203.265 100.926 190.347 109C203.164 117.074 212.752 130.094 216.284 145.333C217.395 149.673 217.899 154.215 217.899 158.958C217.899 191.557 191.456 218 158.857 218H145.333H81.2549L190.255 109H135.755V54.5L26.7549 163.5H81.2549V218H72.667H0L0 145.333L0 72.6667L0 0L72.667 0L145.333 0L158.958 0C191.558 0 218 26.4426 218 59.0417C218 63.6843 217.395 68.3269 216.385 72.6667Z" fill="url(#paint2_linear)" style="mix-blend-mode:soft-light"/>
<defs>
<linearGradient id="paint0_linear" x1="0" y1="0" x2="218" y2="218" gradientUnits="userSpaceOnUse">
<stop stop-color="#8E8CFE"/>
<stop offset="1" stop-color="#0038FF"/>
</linearGradient>
<linearGradient id="paint1_linear" x1="158.331" y1="109.098" x2="55.9277" y2="174.085" gradientUnits="userSpaceOnUse">
<stop stop-color="#11E4D8"/>
<stop offset="1" stop-color="#E28BFF"/>
</linearGradient>
<linearGradient id="paint2_linear" x1="109.098" y1="140.509" x2="91.4734" y2="180.78" gradientUnits="userSpaceOnUse">
<stop stop-color="#11E4D8"/>
<stop offset="0.0001" stop-color="#00FF75"/>
<stop offset="1" stop-color="#E28BFF" stop-opacity="0"/>
</linearGradient>
</defs>
</svg>
