<svg width="75" height="28" viewBox="0 0 75 28" fill="none" xmlns="http://www.w3.org/2000/svg">
<path d="M48.2675 17.13C48.2675 15.0068 47.4071 13.8652 45.7317 13.5114C47.2486 13.2519 48.2675 12.1195 48.2675 10.4681C48.2675 7.96747 46.6147 6.36328 42.9468 6.36328H35.9961V21.2256H43.4223C46.7505 21.2256 48.2675 19.7014 48.2675 17.13ZM42.7884 15.2571C43.8713 15.2571 44.2827 15.8364 44.2827 16.6385C44.2827 17.4406 43.8713 18.0172 42.811 18.0172H39.7318V15.2571H42.7884ZM39.7318 9.54807H42.4487C43.7619 9.54807 44.2827 10.1614 44.2827 10.9399C44.2827 11.6477 43.7619 12.261 42.4487 12.261H39.7318V9.54807Z" fill="black"/>
<path d="M53.4906 15.9648C53.4906 14.3842 54.034 13.299 55.3245 13.299C56.5924 13.299 57.1584 14.3842 57.1584 15.9648C57.1584 17.5454 56.5924 18.6306 55.3245 18.6306C54.034 18.6306 53.4906 17.5454 53.4906 15.9648ZM60.8489 15.9648C60.8489 12.7093 58.6074 10.4209 55.3245 10.4209C52.0189 10.4209 49.8001 12.7093 49.8001 15.9648C49.8001 19.244 52.0189 21.5087 55.3245 21.5087C58.6074 21.5087 60.8489 19.244 60.8489 15.9648Z" fill="black"/>
<path d="M62.3052 6.36328V21.2256H65.973V6.36328H62.3052Z" fill="black"/>
<path d="M68.3276 18.3003C68.3276 20.7774 69.9351 21.5087 71.6332 21.5087C73.0143 21.5087 73.8973 21.1548 74.6671 20.5651V18.088C74.0558 18.3475 73.5577 18.4419 73.1049 18.4419C72.3577 18.4419 71.9502 18.088 71.9502 17.1916V13.3462H74.5765V10.704H71.9502V7.80233H69.6408L69.3012 9.17061C69.0522 10.1378 68.7352 10.704 67.7163 10.8692L66.9692 10.9871V13.3462H68.3276V18.3003Z" fill="black"/>
<path d="M23.3598 14C24.9452 12.9629 26.1095 11.2907 26.5554 9.33332C26.6792 8.77591 26.7535 8.17962 26.7535 7.58332C26.7535 3.39629 23.5084 0 19.5078 0H17.8357H8.91784H2.95303e-09V9.33332V18.6666V28H8.91784H17.8357H19.4954C23.496 28 26.7411 24.6037 26.7411 20.4166C26.7411 19.8074 26.6792 19.224 26.543 18.6666C26.1095 16.7092 24.9328 15.037 23.3598 14Z" fill="#FFD600"/>
<rect x="9.97119" y="14" width="6.68838" height="6.99999" fill="black"/>
<path d="M16.66 7L3.2832 21H9.97158V28L23.3483 14H16.66V7Z" fill="white"/>
<mask id="mask0" mask-type="alpha" maskUnits="userSpaceOnUse" x="3" y="7" width="21" height="21">
<path d="M16.66 7L3.2832 21H9.97158V28L23.3483 14H16.66V7Z" fill="white"/>
</mask>
<g mask="url(#mask0)">
<rect x="9.97119" y="21" width="6.68838" height="6.99999" fill="#E28BFF"/>
</g>
</svg>
